<?xml version="1.0" encoding="UTF-8" standalone="no"?>
<!DOCTYPE svg PUBLIC "-//W3C//DTD SVG 1.1//EN" "http://www.w3.org/Graphics/SVG/1.1/DTD/svg11.dtd">
<svg width="100%" height="100%" viewBox="0 0 426 798" version="1.1" xmlns="http://www.w3.org/2000/svg" xmlns:xlink="http://www.w3.org/1999/xlink" xml:space="preserve" xmlns:serif="http://www.serif.com/" style="fill-rule:evenodd;clip-rule:evenodd;stroke-linejoin:round;stroke-miterlimit:2;">
    <g transform="matrix(1,0,0,1,-2811.93,-145.138)">
        <g transform="matrix(1,0,0,1,2484.56,10.6539)">
            <g transform="matrix(7.31317,0,0,7.21301,-617.113,-3995.13)">
                <path d="M154.391,632.5C151.063,630.671 147.887,628.738 144.864,626.699C141.841,624.66 139.157,622.433 136.813,620.019C134.469,617.605 132.606,614.921 131.223,611.968C129.841,609.015 129.149,605.711 129.149,602.054C129.149,599.007 129.805,596.16 131.118,593.511C132.43,590.863 134.223,588.519 136.497,586.48C138.77,584.441 141.442,582.789 144.512,581.523C147.583,580.257 150.876,579.484 154.391,579.203L154.391,572.523L159.946,572.523L159.946,579.203C162.383,579.343 164.669,579.613 166.801,580.011C168.934,580.41 170.973,580.914 172.919,581.523C174.864,582.132 176.727,582.8 178.508,583.527C180.29,584.253 182.071,584.992 183.852,585.742L183.852,606.273L181.18,606.273C180.665,602.054 179.798,598.632 178.579,596.007C177.36,593.382 175.848,591.273 174.044,589.679C172.239,588.086 170.153,586.925 167.786,586.199C165.419,585.472 162.805,584.898 159.946,584.476L159.946,619.843C163.227,621.625 166.497,623.57 169.755,625.679C173.012,627.789 175.942,630.109 178.544,632.64C181.145,635.171 183.255,637.961 184.872,641.007C186.489,644.054 187.298,647.382 187.298,650.992C187.298,654.367 186.653,657.543 185.364,660.519C184.075,663.496 182.235,666.144 179.844,668.464C177.454,670.785 174.571,672.671 171.196,674.125C167.821,675.578 164.071,676.445 159.946,676.726L159.946,683.054L154.391,683.054L154.391,676.726C151.86,676.679 149.481,676.527 147.255,676.269C145.028,676.011 142.895,675.636 140.856,675.144C138.817,674.652 136.837,674.019 134.915,673.246C132.993,672.472 131.071,671.546 129.149,670.468L129.149,651.484L132.454,651.484C132.923,655.046 133.673,658.093 134.704,660.625C135.735,663.156 137.13,665.218 138.887,666.812C140.645,668.406 142.801,669.566 145.356,670.293C147.911,671.019 150.923,671.382 154.391,671.382L154.391,632.5ZM159.946,671.382C162.102,671.007 164.106,670.281 165.958,669.203C167.809,668.125 169.426,666.836 170.809,665.336C172.192,663.836 173.27,662.16 174.044,660.308C174.817,658.457 175.204,656.57 175.204,654.648C175.204,652.679 174.817,650.804 174.044,649.023C173.27,647.242 172.192,645.566 170.809,643.996C169.426,642.425 167.809,640.961 165.958,639.601C164.106,638.242 162.102,636.976 159.946,635.804L159.946,671.382ZM154.391,584.476C152.469,584.757 150.712,585.343 149.118,586.234C147.524,587.125 146.13,588.214 144.934,589.503C143.739,590.793 142.813,592.234 142.157,593.828C141.501,595.421 141.173,597.062 141.173,598.75C141.173,600.484 141.501,602.171 142.157,603.812C142.813,605.453 143.739,607.023 144.934,608.523C146.13,610.023 147.524,611.429 149.118,612.742C150.712,614.054 152.469,615.25 154.391,616.328L154.391,584.476Z" style="fill:white;fill-rule:nonzero;"/>
            </g>
        </g>
    </g>
</svg>
