<?xml version="1.0" encoding="UTF-8" standalone="no"?>
<!DOCTYPE svg PUBLIC "-//W3C//DTD SVG 1.1//EN" "http://www.w3.org/Graphics/SVG/1.1/DTD/svg11.dtd">
<svg width="100%" height="100%" viewBox="0 0 1080 1080" version="1.1" xmlns="http://www.w3.org/2000/svg" xmlns:xlink="http://www.w3.org/1999/xlink" xml:space="preserve" xmlns:serif="http://www.serif.com/" style="fill-rule:evenodd;clip-rule:evenodd;stroke-linejoin:round;stroke-miterlimit:2;">
    <g id="Full-Graphic" serif:id="Full Graphic">
        <g transform="matrix(1.92586,1.92586,-4.5293,4.5293,1719.74,-1768.36)">
            <path d="M433.216,331.3C433.216,329.748 431.766,328.259 429.184,327.162C426.603,326.064 423.102,325.448 419.451,325.448L166.586,325.448C162.935,325.448 159.434,326.064 156.853,327.162C154.272,328.259 152.822,329.748 152.822,331.3L152.822,438.819C152.822,440.371 154.272,441.86 156.853,442.957C159.434,444.055 162.935,444.671 166.586,444.671L419.451,444.671C423.102,444.671 426.603,444.055 429.184,442.957C431.766,441.86 433.216,440.371 433.216,438.819L433.216,331.3Z" style="fill:rgb(108,213,179);"/>
        </g>
        <g transform="matrix(1,0,0,1,-21.3176,-17.1958)">
            <g id="Tree" transform="matrix(1.28985,0,0,1.28985,-124.159,-139.489)">
                <g transform="matrix(1,0,0,1,94.9395,-99.7728)">
                    <path d="M747.83,605.208L747.83,609.705L711.278,609.705L711.278,634.491L735.751,634.491L735.751,638.988L711.278,638.988L711.278,670.049L747.83,670.049L747.83,674.546L699.617,674.546L699.617,605.208L747.83,605.208Z" style="fill:white;fill-rule:nonzero;"/>
                </g>
                <g transform="matrix(1,0,0,1,94.9395,-99.7728)">
                    <path d="M685.917,605.208L685.917,609.705L649.365,609.705L649.365,634.491L673.838,634.491L673.838,638.988L649.365,638.988L649.365,670.049L685.917,670.049L685.917,674.546L637.704,674.546L637.704,605.208L685.917,605.208Z" style="fill:white;fill-rule:nonzero;"/>
                </g>
                <g transform="matrix(1,0,0,1,94.9395,-99.7728)">
                    <path d="M570.772,605.208L594.826,605.208C598.974,605.208 602.617,605.653 605.754,606.542C608.892,607.431 611.507,608.677 613.598,610.281C615.69,611.884 617.267,613.793 618.331,616.006C619.394,618.22 619.925,620.634 619.925,623.249C619.925,625.41 619.516,627.432 618.697,629.315C617.877,631.197 616.727,632.896 615.245,634.413C613.764,635.929 611.977,637.237 609.885,638.335C607.794,639.433 605.493,640.296 602.983,640.923L628.24,674.546L614.696,674.546L590.59,641.969L582.433,641.969L582.433,674.546L570.772,674.546L570.772,605.208ZM582.433,638.465L589.178,638.465C591.793,638.465 594.207,638.117 596.42,637.42C598.634,636.722 600.551,635.738 602.173,634.465C603.794,633.193 605.057,631.65 605.964,629.837C606.87,628.025 607.323,625.985 607.323,623.719C607.323,621.628 606.966,619.71 606.251,617.967C605.537,616.224 604.526,614.734 603.218,613.496C601.911,612.259 600.36,611.291 598.564,610.594C596.769,609.897 594.808,609.548 592.682,609.548L582.433,609.548L582.433,638.465Z" style="fill:white;fill-rule:nonzero;"/>
                </g>
                <g transform="matrix(1,0,0,1,94.9395,-99.7728)">
                    <path d="M559.372,605.208L559.372,609.705L534.272,609.705L534.272,674.546L522.611,674.546L522.611,609.705L497.512,609.705L497.512,605.208L559.372,605.208Z" style="fill:white;fill-rule:nonzero;"/>
                </g>
            </g>
            <g id="Green" transform="matrix(1.28985,0,0,1.28985,-11.4775,-139.489)">
                <g transform="matrix(1,0,0,1,4.93946,-99.7728)">
                    <path d="M406.472,605.208L413.009,605.208L458.45,655.931L458.973,655.931L458.973,605.208L464.097,605.208L464.097,676.167L461.378,676.167L412.172,619.798L411.754,619.798L411.754,674.546L406.472,674.546L406.472,605.208Z" style="fill:white;fill-rule:nonzero;"/>
                </g>
                <g transform="matrix(1,0,0,1,4.93946,-99.7728)">
                    <path d="M392.772,605.208L392.772,609.705L356.221,609.705L356.221,634.491L380.693,634.491L380.693,638.988L356.221,638.988L356.221,670.049L392.772,670.049L392.772,674.546L344.56,674.546L344.56,605.208L392.772,605.208Z" style="fill:white;fill-rule:nonzero;"/>
                </g>
                <g transform="matrix(1,0,0,1,4.93946,-99.7728)">
                    <path d="M330.859,605.208L330.859,609.705L294.308,609.705L294.308,634.491L318.78,634.491L318.78,638.988L294.308,638.988L294.308,670.049L330.859,670.049L330.859,674.546L282.647,674.546L282.647,605.208L330.859,605.208Z" style="fill:white;fill-rule:nonzero;"/>
                </g>
                <g transform="matrix(1,0,0,1,4.93946,-99.7728)">
                    <path d="M215.714,605.208L239.768,605.208C243.916,605.208 247.559,605.653 250.697,606.542C253.834,607.431 256.449,608.677 258.54,610.281C260.632,611.884 262.21,613.793 263.273,616.006C264.336,618.22 264.868,620.634 264.868,623.249C264.868,625.41 264.458,627.432 263.639,629.315C262.82,631.197 261.669,632.896 260.188,634.413C258.706,635.929 256.919,637.237 254.828,638.335C252.736,639.433 250.435,640.296 247.925,640.923L273.182,674.546L259.639,674.546L235.532,641.969L227.375,641.969L227.375,674.546L215.714,674.546L215.714,605.208ZM227.375,638.465L234.12,638.465C236.735,638.465 239.149,638.117 241.363,637.42C243.576,636.722 245.494,635.738 247.115,634.465C248.736,633.193 250,631.65 250.906,629.837C251.812,628.025 252.266,625.985 252.266,623.719C252.266,621.628 251.908,619.71 251.194,617.967C250.479,616.224 249.468,614.734 248.161,613.496C246.853,612.259 245.302,611.291 243.507,610.594C241.711,609.897 239.75,609.548 237.624,609.548L227.375,609.548L227.375,638.465Z" style="fill:white;fill-rule:nonzero;"/>
                </g>
                <g transform="matrix(1,0,0,1,8.8159,-99.7728)">
                    <path d="M170.325,608.607C166.142,608.607 162.281,609.348 158.743,610.83C155.204,612.311 152.154,614.438 149.592,617.209C147.029,619.981 145.034,623.327 143.604,627.249C142.175,631.171 141.46,635.555 141.46,640.4C141.46,645.281 142.236,649.682 143.787,653.604C145.339,657.526 147.465,660.864 150.167,663.618C152.869,666.372 156.05,668.489 159.71,669.971C163.37,671.453 167.292,672.193 171.475,672.193C174.508,672.193 177.245,671.784 179.685,670.965C182.125,670.145 184.322,668.969 186.274,667.435L186.274,643.119L173.149,643.119L173.149,638.988L197.935,638.988L197.935,669.474C195.913,670.555 193.874,671.514 191.817,672.35C189.76,673.187 187.538,673.884 185.15,674.442C182.762,675 180.138,675.427 177.28,675.723C174.421,676.019 171.179,676.167 167.554,676.167C163.719,676.167 160.076,675.74 156.625,674.886C153.174,674.032 149.975,672.821 147.029,671.252C144.084,669.683 141.425,667.81 139.055,665.631C136.684,663.452 134.671,661.038 133.015,658.388C131.359,655.739 130.078,652.889 129.172,649.839C128.265,646.789 127.812,643.642 127.812,640.4C127.812,637.158 128.239,633.995 129.093,630.909C129.948,627.824 131.176,624.913 132.78,622.177C134.384,619.44 136.336,616.939 138.637,614.673C140.937,612.407 143.535,610.455 146.428,608.816C149.321,607.178 152.476,605.905 155.893,604.999C159.309,604.093 162.935,603.64 166.769,603.64C170.43,603.64 173.82,604.136 176.94,605.13C180.06,606.123 182.901,607.439 185.463,609.078C188.026,610.716 190.3,612.607 192.287,614.751C194.274,616.895 195.983,619.135 197.412,621.471L192.392,624.817C189.464,619.205 186.213,615.1 182.64,612.503C179.066,609.906 174.962,608.607 170.325,608.607Z" style="fill:white;fill-rule:nonzero;"/>
                </g>
            </g>
        </g>
        <g transform="matrix(2.03886,0,0,2.03886,212.431,-740.008)">
            <text x="121.485px" y="674.546px" style="font-family:'TeluguMN', 'Telugu MN';font-size:144px;fill:white;fill-opacity:0.5;">$</text>
        </g>
    </g>
</svg>
